<?xml version="1.0" encoding="UTF-8"?>
<svg id="Layer_1" xmlns="http://www.w3.org/2000/svg" version="1.1" xmlns:xlink="http://www.w3.org/1999/xlink" viewBox="0 0 820 312">
  <!-- Generator: Adobe Illustrator 29.7.1, SVG Export Plug-In . SVG Version: 2.1.1 Build 8)  -->
  <defs>
    <style>
      .st0 {
        fill: url(#linear-gradient1);
      }

      .st0, .st1 {
        stroke: #231f20;
        stroke-miterlimit: 10;
        stroke-width: .25px;
      }

      .st2 {
        fill: #030303;
      }

      .st1 {
        fill: url(#linear-gradient);
      }
    </style>
    <linearGradient id="linear-gradient" x1="18" y1="152.19" x2="196.91" y2="152.19" gradientTransform="translate(0 312) scale(1 -1)" gradientUnits="userSpaceOnUse">
      <stop offset="0" stop-color="#5265ae"/>
      <stop offset=".55" stop-color="#977fba"/>
      <stop offset="1" stop-color="#44c0b8"/>
    </linearGradient>
    <linearGradient id="linear-gradient1" x1="148.7" y1="220.48" x2="195.83" y2="220.48" gradientTransform="translate(0 312) scale(1 -1)" gradientUnits="userSpaceOnUse">
      <stop offset="0" stop-color="#5265ae"/>
      <stop offset=".55" stop-color="#977fba"/>
      <stop offset="1" stop-color="#44c0b8"/>
    </linearGradient>
  </defs>
  <g>
    <path class="st1" d="M196.36,235.15c-3.44-14.72-6.96-29.42-10.45-44.14-2.88-12.89-5.6-25.81-8.69-38.64-2.04-8.43-6.21-15.47-13.22-20.23-5.66-4.83-12.36-6.29-19.3-6.93-1.19-10.23-2.11-20.53-3.64-30.71-2.27-15.11-11.9-24.23-25.97-25.29l-.57.09-.57-.09c-.38,0-.77,0-1.15.04-11.57-.51-19.59,5.75-24.55,16.37-23.06,49.33-45.94,98.75-68.81,148.18-3.65,7.91-.07,15.65,7.96,16.09,9.73.55,19.54,1.01,29.27-.4,5.75.07,11.51-.04,17.25.27,5.3.27,8.93-1.96,11.42-7.01,2.5-5.09,5.34-9.96,7.97-14.97,11.54-22.01,23.08-44.04,34.61-66.06-2.26-8.19-9.43-9.07-15.24-11.98-14.1,26.35-28.23,52.69-42.33,79.05-.24,2.09.76,3.6,1.69,5.14-.93-1.54-1.92-3.07-1.69-5.14h-26.56c.83-2.02,1.3-3.28,1.85-4.46,20.16-43.66,40.42-87.28,60.39-131.04,2-4.38,5.33-2.77,8.04-3.87-3.44-3.61-4.85-7.52-3.9-11.83-.96,4.31.46,8.22,3.9,11.83,6.41.89,8.04,5.87,8.65,11.78,1.03,10.07,2.14,20.13,3.19,30.19-6.08,4.7-10.3,10.97-13.26,18.36,5.8,2.9,12.98,3.79,15.24,11.98.38-.11.79-.22,1.18-.35,2.99,26.03,5.93,52.05,9,78.08.88,7.37,3.75,10.19,10.45,10.27,12.56.16,25.14.2,37.7.05,8.5-.11,12.23-5.61,10.12-14.61h.02ZM168.13,198.45c2,8.69,3.91,17.42,6.02,26.07.77,3.22.26,4.27-3.12,4.43-14.3.66-14.47.82-16.35-15.16-2.61-22.24-4.94-44.53-7.4-66.8,1.64.43,3.26.86,4.9,1.29,1.85.22,3.53.07,5.01-.47-1.49.52-3.14.67-5.01.47,3.61,3.41,5.87,7.52,7.01,12.74,2.72,12.54,5.91,24.95,8.93,37.44,2.76,2.27,4.95,5.56,8.76,4.98-3.8.58-6.02-2.73-8.76-4.98h0Z"/>
    <path class="st0" d="M172.25,117.03c12.98,0,23.68-11.67,23.57-25.76-.09-13.95-10.43-25.19-23.3-25.29-13.27-.11-23.86,11.12-23.82,25.29.04,14.32,10.46,25.73,23.54,25.77h.01Z"/>
  </g>
  <g>
    <path class="st2" d="M227.43,157.52c7.52-14.88,23.67-24.04,40.08-25.61,17.58-2.15,37.85.86,50.2,14.6,7.5,7.68,10.24,18.41,11.35,28.74-7.56.04-15.44,1.2-22.79-1.13-6.86-3.2-8.28-12.36-15.32-15.39-9.38-3.75-20.62-3.64-29.62,1.1-8.66,4.62-12.6,14.54-13.79,23.72-1.43,12.26-.76,25.89,6.93,36.22,7.82,10.34,23.25,11.85,34.72,7.35,7.75-3.07,11.42-10.94,13.64-18.33,8.66-.12,17.33-.16,26.01,0-.45,15.72-8.85,31.64-23.56,38.57-17.52,8.33-39.02,8.73-56.72.76-14.45-6.38-23.86-20.71-26.81-35.74-3.56-18.24-2.79-38.03,5.7-54.89h0v.04h-.01Z"/>
    <path class="st2" d="M556.08,134.04c7.42.32,16.35-1.92,22.41,3.55,6.05,5.98,3.79,15.19,4.25,22.79h13.7c-.45,4.97.83,10.87-3.22,14.72-2.52,3.25-6.86,3.81-10.5,5.13.19,16.17-.46,32.37.26,48.52,3.03,3.65,9.09,1.54,13.27,2.42,0,6.59.01,13.23.11,19.82-10.19.98-20.69,1.22-30.74-1.01-7.09-2.28-9.77-10.07-9.58-16.81-.09-33.06-.12-66.13.05-99.18h0v.04h-.01Z"/>
    <path class="st2" d="M600.13,133.63c7.5.15,16.66-2.22,22.58,3.69,5.01,4.47,3.8,11.63,4.22,17.61-9,.31-18,.38-26.97-.15.05-7.05.05-14.1.16-21.15h.01Z"/>
    <path class="st2" d="M400.63,169.04c16.14-14.56,43.83-14.34,59.92.12,11.68,11.16,12.98,28.15,13.56,43.26,5.56-15.45,24.18-18.09,38.46-19.97,5.28-.86,15.55-2.59,12.45-10.14-7.71-5.13-20.15-5.05-26.04,2.9-8.27.12-16.52.12-24.79,0,1.35-6.54,3.4-13.32,8.52-18.01,8.97-9,22.69-10.49,34.86-9.74,10.43.82,22.22,3.14,28.96,11.85,6.74,8.7,4.32,20.28,4.75,30.46-.34,13.11,1.85,27.87-6.63,39.08-6.9,9.91-19.32,14.05-31.01,14.57-12.49,1.54-26.7-.47-35.51-10.18-7.04-8.3-5.64-19.9-4.9-29.92-19.46,1.02-38.98.2-58.47.46,1.23,4.73,1.92,10.14,5.9,13.52,4.02,4.03,10.32,4.26,15.6,3.24,6.54-.93,9.42-9.27,16.37-8.8,6.52-.31,13.06-.04,19.59.04-2.07,12.8-11.16,24.17-23.5,28.67-13.53,5-29.82,4.83-42.22-3.02-11.79-7.61-17.7-21.5-18.57-35.01-1.27-15.18,1.46-32.19,12.71-43.42h0v.02ZM422.93,182.77c-4.99,2.38-6.78,7.88-8.52,12.69,10.61.38,21.28.43,31.89-.09-1.29-3.3-2.31-6.77-4.28-9.74-4.63-5.16-13.03-5.75-19.09-2.87h0ZM503,214.63c-7.42,2.38-7.55,15.14.2,17.16,6.86,1.42,15.01-.19,19.38-6.03,3.86-5,3.25-11.62,3.69-17.52-7.66,2.5-15.75,3.55-23.26,6.42h0v-.02Z"/>
    <path class="st2" d="M729.94,171.32c18.01-19.86,57.1-17.07,69.34,7.78,5.33,10.66,6.33,22.92,5.41,34.65-19.51.19-39.04,0-58.58.11.83,8.76,6.96,18.5,17.08,17.23,7.2.83,11.66-5.14,16.91-8.76,7.92-1.3,16.01-.43,23.98-.46-2.26,8.34-6.08,16.57-12.96,22.17-12.15,10.02-29.69,12.03-44.55,7.58-14.37-4.49-24.11-18.25-26.33-32.62-2.76-16.2-1.04-34.5,9.69-47.67h0ZM754.35,182.79c-4.98,2.42-6.72,7.88-8.4,12.69,10.61.35,21.23.42,31.84-.11-1.3-3.38-2.35-6.9-4.42-9.91-4.72-5-13-5.56-19-2.67h-.01Z"/>
    <path class="st2" d="M347.91,170.94c10.85-8.88,25.47-10.84,39.09-10.58.04,8.93.01,17.89.01,26.83-6.78.4-14.1-.7-20.35,2.51-5.13,2.71-6.19,9.05-6.32,14.26-.26,15.86.19,31.73-.19,47.62-8.81.25-17.65.27-26.47-.05-.16-15.14-.16-30.3-.09-45.43.15-12.85,4.06-26.58,14.29-35.15h.01Z"/>
    <path class="st2" d="M599.94,159.82c9.68-1.3,24.79-1.78,26.5,10.8.7,26.95.26,53.96.19,80.97-8.84.29-17.66.29-26.5-.05-.26-30.57.09-61.14-.19-91.7h0v-.02Z"/>
    <path class="st2" d="M626.27,159.98c9.38-.2,18.78-.15,28.15-.16,5.98,18.98,10.7,38.34,16.93,57.28,4.52-15.11,8.78-30.26,13.22-45.35,1.42-4.78,3.71-10.53,9.36-11.36,7.78-1.14,15.7-.42,23.52-.38-10.58,30.61-21.88,60.96-32.49,91.59-8.85.27-17.69.25-26.51.11-10.5-30.65-21.72-61.05-32.19-91.7h0v-.02Z"/>
  </g>
</svg>